<?xml version="1.0" encoding="UTF-8"?>
<svg xmlns="http://www.w3.org/2000/svg" xmlns:xlink="http://www.w3.org/1999/xlink" width="25pt" height="25pt" viewBox="0 0 25 25" version="1.1">
<g id="surface1">
<path style=" stroke:none;fill-rule:nonzero;fill:rgb(24.313725%,46.666667%,74.901961%);fill-opacity:1;" d="M 12.5 0.261719 C 5.597656 0.261719 0 5.878906 0 12.8125 C 0 18.355469 3.582031 23.058594 8.550781 24.71875 C 9.175781 24.832031 9.402344 24.445312 9.402344 24.113281 C 9.402344 23.816406 9.390625 23.027344 9.386719 21.980469 C 5.90625 22.738281 5.175781 20.296875 5.175781 20.296875 C 4.605469 18.847656 3.785156 18.460938 3.785156 18.460938 C 2.652344 17.683594 3.871094 17.699219 3.871094 17.699219 C 5.125 17.785156 5.785156 18.992188 5.785156 18.992188 C 6.902344 20.910156 8.714844 20.355469 9.425781 20.035156 C 9.539062 19.222656 9.863281 18.667969 10.21875 18.355469 C 7.445312 18.039062 4.527344 16.960938 4.527344 12.152344 C 4.527344 10.785156 5.011719 9.664062 5.8125 8.785156 C 5.683594 8.46875 5.253906 7.191406 5.933594 5.464844 C 5.933594 5.464844 6.984375 5.128906 9.371094 6.75 C 10.367188 6.472656 11.4375 6.335938 12.5 6.328125 C 13.5625 6.335938 14.632812 6.472656 15.632812 6.75 C 18.015625 5.128906 19.066406 5.464844 19.066406 5.464844 C 19.746094 7.191406 19.316406 8.46875 19.1875 8.785156 C 19.992188 9.664062 20.472656 10.785156 20.472656 12.152344 C 20.472656 16.976562 17.550781 18.035156 14.765625 18.347656 C 15.214844 18.734375 15.617188 19.5 15.617188 20.671875 C 15.617188 22.347656 15.601562 23.703125 15.601562 24.113281 C 15.601562 24.449219 15.824219 24.839844 16.460938 24.714844 C 21.421875 23.054688 25 18.351562 25 12.8125 C 25 5.878906 19.402344 0.261719 12.5 0.261719 Z M 12.5 0.261719 "/>
<path style=" stroke:none;fill-rule:nonzero;fill:rgb(24.313725%,46.666667%,74.901961%);fill-opacity:1;" d="M 12.5 0.261719 C 5.597656 0.261719 0 5.878906 0 12.8125 C 0 18.355469 3.582031 23.058594 8.550781 24.71875 C 9.175781 24.832031 9.402344 24.445312 9.402344 24.113281 C 9.402344 23.816406 9.390625 23.027344 9.386719 21.980469 C 5.90625 22.738281 5.175781 20.296875 5.175781 20.296875 C 4.605469 18.847656 3.785156 18.460938 3.785156 18.460938 C 2.652344 17.683594 3.871094 17.699219 3.871094 17.699219 C 5.125 17.785156 5.785156 18.992188 5.785156 18.992188 C 6.902344 20.910156 8.714844 20.355469 9.425781 20.035156 C 9.539062 19.222656 9.863281 18.667969 10.21875 18.355469 C 7.445312 18.039062 4.527344 16.960938 4.527344 12.152344 C 4.527344 10.785156 5.011719 9.664062 5.8125 8.785156 C 5.683594 8.46875 5.253906 7.191406 5.933594 5.464844 C 5.933594 5.464844 6.984375 5.128906 9.371094 6.75 C 10.367188 6.472656 11.4375 6.335938 12.5 6.328125 C 13.5625 6.335938 14.632812 6.472656 15.632812 6.75 C 18.015625 5.128906 19.066406 5.464844 19.066406 5.464844 C 19.746094 7.191406 19.316406 8.46875 19.1875 8.785156 C 19.992188 9.664062 20.472656 10.785156 20.472656 12.152344 C 20.472656 16.976562 17.550781 18.035156 14.765625 18.347656 C 15.214844 18.734375 15.617188 19.5 15.617188 20.671875 C 15.617188 22.347656 15.601562 23.703125 15.601562 24.113281 C 15.601562 24.449219 15.824219 24.839844 16.460938 24.714844 C 21.421875 23.054688 25 18.351562 25 12.8125 C 25 5.878906 19.402344 0.261719 12.5 0.261719 Z M 12.5 0.261719 "/>
<path style=" stroke:none;fill-rule:nonzero;fill:rgb(6.666667%,29.803922%,50.980392%);fill-opacity:1;" d="M 19.078125 5.5 C 19.738281 7.210938 19.316406 8.472656 19.1875 8.785156 C 19.988281 9.664062 20.472656 10.785156 20.472656 12.152344 C 20.472656 16.976562 17.550781 18.035156 14.765625 18.347656 C 15.214844 18.734375 15.613281 19.5 15.613281 20.671875 C 15.613281 22.347656 15.601562 23.703125 15.601562 24.113281 C 15.601562 24.449219 15.824219 24.839844 16.460938 24.714844 C 21.421875 23.054688 25 18.351562 25 12.8125 C 25 11.320312 24.742188 9.890625 24.265625 8.566406 C 22.542969 6.753906 20.625 5.542969 19.078125 5.5 Z M 19.078125 5.5 "/>
<path style=" stroke:none;fill-rule:nonzero;fill:rgb(6.666667%,29.803922%,50.980392%);fill-opacity:1;" d="M 9.726562 19.019531 C 9.867188 18.734375 10.039062 18.515625 10.21875 18.355469 C 8.699219 18.179688 7.136719 17.777344 6.03125 16.65625 C 6.882812 18.066406 8.261719 18.710938 9.726562 19.019531 Z M 9.726562 19.019531 "/>
<path style=" stroke:none;fill-rule:nonzero;fill:rgb(42.352941%,66.27451%,91.764706%);fill-opacity:1;" d="M 0.652344 13.65625 C 0.652344 6.722656 6.246094 1.105469 13.152344 1.105469 C 16.984375 1.105469 20.410156 2.839844 22.703125 5.566406 C 20.441406 2.355469 16.714844 0.261719 12.5 0.261719 C 5.597656 0.261719 0 5.878906 0 12.8125 C 0 15.902344 1.113281 18.730469 2.960938 20.914062 C 1.507812 18.867188 0.652344 16.363281 0.652344 13.65625 Z M 0.652344 13.65625 "/>
<path style=" stroke:none;fill-rule:nonzero;fill:rgb(3.137255%,24.313725%,40%);fill-opacity:1;" d="M 16.265625 21.515625 C 16.265625 20.347656 15.867188 19.578125 15.417969 19.191406 C 18.203125 18.882812 21.125 17.820312 21.125 13 C 21.125 11.628906 20.640625 10.511719 19.839844 9.632812 C 19.96875 9.316406 20.398438 8.039062 19.714844 6.3125 C 19.714844 6.3125 19.585938 6.273438 19.316406 6.289062 C 19.609375 7.589844 19.296875 8.519531 19.1875 8.785156 C 19.988281 9.664062 20.472656 10.785156 20.472656 12.152344 C 20.472656 16.976562 17.550781 18.035156 14.765625 18.347656 C 15.214844 18.734375 15.613281 19.5 15.613281 20.671875 C 15.613281 22.347656 15.601562 23.703125 15.601562 24.113281 C 15.601562 24.410156 15.777344 24.746094 16.25 24.738281 C 16.253906 24.171875 16.265625 22.964844 16.265625 21.515625 Z M 16.265625 21.515625 "/>
<path style=" stroke:none;fill-rule:nonzero;fill:rgb(6.666667%,29.803922%,50.980392%);fill-opacity:1;" d="M 5.921875 21.371094 C 6.183594 21.910156 7.066406 23.207031 9.394531 22.933594 C 9.390625 22.648438 9.386719 22.328125 9.386719 21.980469 C 7.589844 22.371094 6.53125 21.910156 5.921875 21.371094 Z M 5.921875 21.371094 "/>
<path style=" stroke:none;fill-rule:nonzero;fill:rgb(42.352941%,66.27451%,91.764706%);fill-opacity:1;" d="M 6.371094 19.726562 C 6.289062 19.605469 6.140625 19.402344 5.921875 19.195312 C 6.0625 19.40625 6.210938 19.582031 6.371094 19.726562 Z M 6.371094 19.726562 "/>
</g>
</svg>
