<?xml version="1.0" encoding="UTF-8"?>
<svg xmlns="http://www.w3.org/2000/svg" xmlns:xlink="http://www.w3.org/1999/xlink" width="25pt" height="25pt" viewBox="0 0 25 25" version="1.1">
<g id="surface1">
<path style=" stroke:none;fill-rule:nonzero;fill:rgb(0%,46.666667%,71.764706%);fill-opacity:1;" d="M 22.738281 0 L 2.261719 0 C 1.011719 0 0 1.011719 0 2.261719 L 0 22.738281 C 0 23.988281 1.011719 25 2.261719 25 L 22.738281 25 C 23.988281 25 25 23.988281 25 22.738281 L 25 2.261719 C 25 1.011719 23.988281 0 22.738281 0 Z M 7.734375 21.585938 C 7.734375 21.949219 7.441406 22.246094 7.078125 22.246094 L 4.277344 22.246094 C 3.914062 22.246094 3.617188 21.949219 3.617188 21.585938 L 3.617188 9.84375 C 3.617188 9.480469 3.914062 9.183594 4.277344 9.183594 L 7.078125 9.183594 C 7.441406 9.183594 7.734375 9.480469 7.734375 9.84375 Z M 5.675781 8.078125 C 4.207031 8.078125 3.015625 6.886719 3.015625 5.417969 C 3.015625 3.945312 4.207031 2.753906 5.675781 2.753906 C 7.148438 2.753906 8.339844 3.945312 8.339844 5.417969 C 8.339844 6.886719 7.148438 8.078125 5.675781 8.078125 Z M 22.375 21.640625 C 22.375 21.972656 22.105469 22.246094 21.769531 22.246094 L 18.765625 22.246094 C 18.429688 22.246094 18.160156 21.972656 18.160156 21.640625 L 18.160156 16.132812 C 18.160156 15.308594 18.402344 12.53125 16.011719 12.53125 C 14.160156 12.53125 13.785156 14.433594 13.707031 15.285156 L 13.707031 21.640625 C 13.707031 21.972656 13.4375 22.246094 13.101562 22.246094 L 10.195312 22.246094 C 9.863281 22.246094 9.589844 21.972656 9.589844 21.640625 L 9.589844 9.789062 C 9.589844 9.457031 9.863281 9.183594 10.195312 9.183594 L 13.101562 9.183594 C 13.4375 9.183594 13.707031 9.457031 13.707031 9.789062 L 13.707031 10.816406 C 14.394531 9.785156 15.417969 8.988281 17.589844 8.988281 C 22.402344 8.988281 22.375 13.484375 22.375 15.957031 Z M 22.375 21.640625 "/>
</g>
</svg>
